<svg xmlns="http://www.w3.org/2000/svg" width="24" height="24" viewBox="0 0 24 24" fill="none" stroke="currentColor" stroke-width="2" stroke-linecap="round" stroke-linejoin="round">
  <path d="M15 12l-8.5 8.5c-.83.83-2.17.83-3 0 0 0 0 0 0 0a2.12 2.12 0 0 1 0-3L12 9"></path>
  <path d="M17.64 15L22 10.64"></path>
  <path d="M20.91 11.7l-1.25-1.25c-.6-.6-.93-1.4-.93-2.25v-.86L16.01 4.6a5.56 5.56 0 0 0-3.94-1.64H9l.92.82A6.18 6.18 0 0 1 12 8.4v1.56l2 2h2.47l2.26 1.91"></path>
  <path d="M12.73 9.3L5.9 2.47a1.93 1.93 0 0 0-2.89 0 3.11 3.11 0 0 0-.88 1.96v.06c0 .73.3 1.43.83 1.96l6.83 6.84"></path>
  <path d="M18.5 15c-1.5 1.26-2 5-2 5s3.74-.5 5-2c.71-.84.7-2.13-.09-2.91a2.18 2.18 0 0 0-2.91-.09z"></path>
</svg>
