<svg xmlns="http://www.w3.org/2000/svg" width="24" height="24" viewBox="0 0 24 24" fill="none" stroke="currentColor" stroke-width="2" stroke-linecap="round" stroke-linejoin="round">
  <path d="M2 22V8c0-1.1.9-2 2-2h2"></path>
  <path d="M6 22V4c0-1.1.9-2 2-2h8c1.1 0 2 .9 2 2v18"></path>
  <path d="M18 22h2c1.1 0 2-.9 2-2V10c0-1.1-.9-2-2-2h-2"></path>
  <path d="M4 22H2"></path>
  <path d="M22 22h-2"></path>
  <path d="M12 22v-5"></path>
  <path d="M12 7v5"></path>
  <path d="M12 2v2"></path>
  <path d="M8 6h8"></path>
  <path d="M15 14h-3"></path>
  <rect x="8" y="10" width="2" height="6"></rect>
  <rect x="14" y="10" width="2" height="6"></rect>
  <path d="M6 10h12"></path>
  <path d="M6 14h12"></path>
  <path d="M6 18h12"></path>
  <path d="M6 22h12"></path>
</svg>
