<svg xmlns="http://www.w3.org/2000/svg" width="24" height="24" viewBox="0 0 24 24" fill="none" stroke="currentColor" stroke-width="2" stroke-linecap="round" stroke-linejoin="round">
  <path d="M12 20h8a2 2 0 0 0 2-2V8a2 2 0 0 0-2-2h-8"></path>
  <path d="M4 6a2 2 0 0 1 2-2h8"></path>
  <path d="M12 14h.01"></path>
  <path d="M4 10v8a2 2 0 0 0 2 2h8"></path>
  <path d="M2 14h4"></path>
  <path d="M18 14h4"></path>
  <path d="m14 12-8.5 8.5a2.12 2.12 0 0 1-3 0 2.12 2.12 0 0 1 0-3L11 9"></path>
  <path d="M5 6v4"></path>
  <path d="M19 6v4"></path>
  <path d="M5 10h14"></path>
  <circle cx="5" cy="6" r="2"></circle>
  <circle cx="19" cy="6" r="2"></circle>
</svg>
